<?xml version="1.0"?>
<svg xmlns="http://www.w3.org/2000/svg" xmlns:xlink="http://www.w3.org/1999/xlink" width="512" height="512" viewBox="0 0 128 128"><defs><linearGradient id="a" x1="114.899" y1="102.742" x2="13.101" y2="0.944" gradientUnits="userSpaceOnUse"><stop offset="0" stop-color="#7b49ad"/><stop offset="1" stop-color="#6aa8fb"/></linearGradient></defs><path d="M70.563,108.063l-1.711-9.194a1.75,1.75,0,1,1,3.44-.64L74,107.423a1.749,1.749,0,0,1-1.4,2.04,1.688,1.688,0,0,1-.322.031A1.752,1.752,0,0,1,70.563,108.063ZM121.5,52.75a1.751,1.751,0,0,0-1.75,1.75v3.417a1.75,1.75,0,0,0,3.5,0V54.5A1.751,1.751,0,0,0,121.5,52.75Zm1.75-40.25V48.25a1.75,1.75,0,0,1-3.5,0V12.5a4.255,4.255,0,0,0-4.25-4.25H12.5A4.255,4.255,0,0,0,8.25,12.5V84a4.255,4.255,0,0,0,4.25,4.25h103A4.255,4.255,0,0,0,119.75,84V64.25a1.75,1.75,0,0,1,3.5,0V84a7.759,7.759,0,0,1-7.75,7.75H77.186l4.1,22h6.383a7.759,7.759,0,0,1,7.75,7.75,1.751,1.751,0,0,1-1.75,1.75H34.333a1.751,1.751,0,0,1-1.75-1.75,7.759,7.759,0,0,1,7.75-7.75h6.383l1.9-10.191a1.75,1.75,0,0,1,3.44.64l-1.779,9.551H77.724l-4.1-22H54.374l-.961,5.157a1.75,1.75,0,1,1-3.44-.641l.841-4.516H12.5A7.759,7.759,0,0,1,4.75,84V12.5A7.759,7.759,0,0,1,12.5,4.75h103A7.759,7.759,0,0,1,123.25,12.5ZM87.667,117.25H40.333a4.257,4.257,0,0,0-3.873,2.5H91.54A4.257,4.257,0,0,0,87.667,117.25ZM12.5,26.75a1.751,1.751,0,0,0-1.75,1.75V78a1.751,1.751,0,0,0,1.75,1.75h103A1.751,1.751,0,0,0,117.25,78V12.5a1.751,1.751,0,0,0-1.75-1.75H12.5a1.751,1.751,0,0,0-1.75,1.75v6.75a1.75,1.75,0,0,0,3.5,0v-5h99.5v62H14.25V28.5A1.751,1.751,0,0,0,12.5,26.75Zm9-3.75H36.167a1.75,1.75,0,0,0,0-3.5H21.5a1.75,1.75,0,0,0,0,3.5Zm0,6h19a1.75,1.75,0,0,0,0-3.5h-19a1.75,1.75,0,0,0,0,3.5Zm0,6H58.25a1.75,1.75,0,0,0,0-3.5H21.5a1.75,1.75,0,0,0,0,3.5ZM108,33.25a1.751,1.751,0,0,0-1.75-1.75H69.5a1.75,1.75,0,0,0,0,3.5h36.75A1.751,1.751,0,0,0,108,33.25ZM21.5,41H35.417a1.75,1.75,0,0,0,0-3.5H21.5a1.75,1.75,0,0,0,0,3.5Zm22.563-3.5a1.75,1.75,0,0,0,0,3.5h8.1a1.75,1.75,0,0,0,0-3.5ZM21.5,47H75.25a1.75,1.75,0,0,0,0-3.5H21.5a1.75,1.75,0,0,0,0,3.5Zm0,6H49.25a1.75,1.75,0,0,0,0-3.5H21.5a1.75,1.75,0,0,0,0,3.5Zm60.75-1.75A1.751,1.751,0,0,0,80.5,49.5H60.125a1.75,1.75,0,0,0,0,3.5H80.5A1.751,1.751,0,0,0,82.25,51.25Zm24.083-6a1.75,1.75,0,0,0-1.75-1.75H87.21a1.75,1.75,0,1,0,0,3.5h17.373A1.75,1.75,0,0,0,106.333,45.25ZM21.5,59H58.25a1.75,1.75,0,0,0,0-3.5H21.5a1.75,1.75,0,0,0,0,3.5Zm72.75-1.75A1.751,1.751,0,0,0,92.5,55.5H70.313a1.75,1.75,0,0,0,0,3.5H92.5A1.751,1.751,0,0,0,94.25,57.25ZM21.5,65h8.75a1.75,1.75,0,0,0,0-3.5H21.5a1.75,1.75,0,0,0,0,3.5Zm21.188-3.5a1.75,1.75,0,0,0,0,3.5H70.313a1.75,1.75,0,0,0,0-3.5ZM21.5,71H52.583a1.75,1.75,0,0,0,0-3.5H21.5a1.75,1.75,0,0,0,0,3.5Z" fill="url(#a)"/></svg>
